<?xml version="1.0" encoding="UTF-8" standalone="no"?>
<svg
    xmlns:dc="http://purl.org/dc/elements/1.1/"
    xmlns:cc="http://creativecommons.org/ns#"
    xmlns:rdf="http://www.w3.org/1999/02/22-rdf-syntax-ns#"
    xmlns="http://www.w3.org/2000/svg"
    xmlns:sodipodi="http://sodipodi.sourceforge.net/DTD/sodipodi-0.dtd"
    xmlns:inkscape="http://www.inkscape.org/namespaces/inkscape"
    width="547.54688pt"
    height="131.03809pt"
    viewBox="0 0 547.54687 131.03808"
    version="1.1"
    id="svg21"
    sodipodi:docname="logo_dark.svg"
    inkscape:version="0.92.3 (2405546, 2018-03-11)">
    <metadata
        id="metadata27">
        <rdf:RDF>
            <cc:Work
                rdf:about="">
                <dc:format>image/svg+xml</dc:format>
                <dc:type
                    rdf:resource="http://purl.org/dc/dcmitype/StillImage"/>
                <dc:title></dc:title>
            </cc:Work>
        </rdf:RDF>
    </metadata>
    <defs
        id="defs25"/>
    <sodipodi:namedview
        pagecolor="#ffffff"
        bordercolor="#666666"
        borderopacity="1"
        objecttolerance="10"
        gridtolerance="10"
        guidetolerance="10"
        inkscape:pageopacity="0"
        inkscape:pageshadow="2"
        inkscape:window-width="1920"
        inkscape:window-height="1200"
        id="namedview23"
        showgrid="false"
        inkscape:zoom="0.68536165"
        inkscape:cx="-408.50006"
        inkscape:cy="355.36024"
        inkscape:window-x="1920"
        inkscape:window-y="0"
        inkscape:window-maximized="1"
        inkscape:current-layer="surface1"/>
    <g
        id="surface1"
        transform="translate(-147.17187,-248.85547)">
        <g
            id="g45"
            style="opacity:1">
            <path
                id="path4"
                d="m 257.21875,289.22656 v 53.87891 h -13.77344 v -53.87891 c 0,-4.32031 -1.58984,-7.64844 -4.77344,-9.99219 -3.18359,-2.33984 -7.23828,-3.50781 -12.17187,-3.50781 -2.33203,0 -4.55078,0.26953 -6.65625,0.8086 -2.10938,0.53906 -3.94531,1.375 -5.51563,2.49609 -1.57031,1.12891 -2.82421,2.54687 -3.76562,4.25391 -0.94141,1.71093 -1.41406,3.69531 -1.41406,5.9414 v 53.87891 h -13.76953 v -53.87891 c 0,-4.32031 -1.60157,-7.64844 -4.79297,-9.99219 -3.19922,-2.33984 -7.35938,-3.50781 -12.49219,-3.50781 -2.33984,0 -4.54688,0.26953 -6.61719,0.8086 -2.07031,0.53906 -3.87109,1.375 -5.40234,2.49609 -1.52735,1.12891 -2.76563,2.54687 -3.71094,4.25391 -0.94531,1.71093 -1.41797,3.69531 -1.41797,5.9414 v 53.87891 h -13.77344 v -53.87891 c 0,-4.67969 0.83204,-8.70703 2.5,-12.08203 1.66407,-3.37891 3.89063,-6.19141 6.6836,-8.44141 2.78906,-2.25 6.05078,-3.91796 9.78906,-4.99609 3.73438,-1.07812 7.71875,-1.62109 11.94922,-1.62109 5.21875,0 9.87891,0.58984 13.97656,1.75781 4.09375,1.17187 7.44531,3.15234 10.0586,5.94141 2.60937,-2.78907 6.05468,-4.76954 10.32812,-5.94141 4.27734,-1.16797 8.93359,-1.75781 13.97656,-1.75781 4.41016,0 8.50782,0.58984 12.28907,1.75781 3.78125,1.17187 7.04296,2.88281 9.78906,5.12891 2.74609,2.2539 4.88281,5.08593 6.41406,8.50781 1.52734,3.42187 2.29297,7.33594 2.29297,11.74609"
                style="fill:#ffffff;fill-opacity:1;fill-rule:nonzero;stroke:none"
                inkscape:connector-curvature="0"/>
            <path
                id="path6"
                d="m 327.57031,263.30469 h 13.77344 v 53.875 c 0,4.32031 -0.85938,8.16797 -2.57422,11.54297 -1.71094,3.375 -4.10156,6.21093 -7.16797,8.50781 -3.07031,2.29687 -6.69922,4.03125 -10.89062,5.19922 -4.19532,1.16797 -8.77344,1.7539 -13.73047,1.7539 -4.8711,0 -9.47266,-0.58593 -13.80078,-1.7539 -4.32813,-1.16797 -8.09375,-2.90235 -11.29688,-5.19922 -3.20312,-2.29688 -5.75,-5.13281 -7.64453,-8.50781 -1.89453,-3.375 -2.83984,-7.22266 -2.83984,-11.54297 v -53.875 h 13.77343 v 53.875 c 0,2.51953 0.69532,4.63672 2.08985,6.34765 1.39453,1.70703 3.17578,3.08203 5.33594,4.11719 2.16015,1.03516 4.5,1.77734 7.01953,2.22656 2.51953,0.45313 4.94922,0.67578 7.29297,0.67578 2.16015,0 4.43359,-0.22265 6.82031,-0.67578 2.38281,-0.44922 4.60937,-1.1914 6.67969,-2.22656 2.07421,-1.03516 3.78125,-2.41016 5.13281,-4.11719 1.35156,-1.71093 2.02734,-3.82812 2.02734,-6.34765"
                style="fill:#ffffff;fill-opacity:1;fill-rule:nonzero;stroke:none"
                inkscape:connector-curvature="0"/>
            <path
                id="path8"
                d="m 388.92187,295.84375 c 4.96094,0 9.5625,0.42969 13.80469,1.28516 4.24219,0.85546 7.91797,2.22656 11.03125,4.11718 3.11328,1.89063 5.52735,4.36719 7.2461,7.42578 1.71093,3.0625 2.57031,6.79688 2.57031,11.20704 0,4.32031 -0.90235,8.05859 -2.71094,11.20703 -1.80078,3.15234 -4.28516,5.71875 -7.4375,7.69922 -3.15625,1.98046 -6.83203,3.4414 -11.02734,4.38671 -4.19532,0.94532 -8.67969,1.41797 -13.46094,1.41797 -16.77734,0 -28.41016,-5.89453 -34.90625,-17.6914 l 11.75,-6.88282 c 0.72266,1.34766 1.66406,2.67969 2.83203,3.98047 1.17188,1.3086 2.67969,2.48047 4.52734,3.51172 1.84375,1.03516 4.05079,1.8711 6.61719,2.5 2.5625,0.62891 5.60156,0.94141 9.11328,0.94141 2.78907,0 5.46875,-0.22266 8.03125,-0.67188 2.56641,-0.45312 4.79688,-1.125 6.6875,-2.02734 1.89063,-0.89844 3.39453,-2.04688 4.52344,-3.44141 1.12109,-1.39453 1.6875,-3.03906 1.6875,-4.92968 0,-1.98047 -0.56641,-3.6211 -1.6875,-4.92969 -1.12891,-1.30078 -2.63281,-2.36328 -4.52344,-3.17188 -1.89062,-0.80859 -4.12109,-1.37109 -6.6875,-1.6875 -2.5625,-0.3164 -5.24218,-0.47265 -8.03125,-0.47265 -4.77343,0 -9.25,-0.38282 -13.43359,-1.14844 -4.1875,-0.76563 -7.85938,-2.07031 -11.00781,-3.91406 -3.15235,-1.84375 -5.625,-4.25391 -7.42578,-7.22657 -1.80079,-2.96875 -2.69922,-6.61328 -2.69922,-10.9375 0,-4.41015 0.875,-8.16796 2.63281,-11.27343 1.75391,-3.10547 4.18359,-5.625 7.28906,-7.5586 3.10547,-1.9375 6.77344,-3.33203 11.00391,-4.1875 4.23437,-0.85547 8.77734,-1.28515 13.64062,-1.28515 7.64844,0 13.9961,1.21875 19.03907,3.64843 5.03906,2.42969 9.35937,6.66016 12.96093,12.69141 l -12.15234,7.15625 c -1.98047,-3.78125 -4.57031,-6.36719 -7.76563,-7.76172 -3.19531,-1.39844 -7.22265,-2.09375 -12.08203,-2.09375 -2.69922,0 -5.3125,0.17969 -7.83203,0.53906 -2.51953,0.35938 -4.77344,0.96875 -6.75,1.82422 -1.98437,0.85547 -3.55859,1.95703 -4.72656,3.30469 -1.17188,1.35156 -1.75781,3.01953 -1.75781,4.99609 0,1.89063 0.58984,3.44532 1.76172,4.66016 1.17187,1.21484 2.72656,2.16016 4.66796,2.83594 1.94141,0.67578 4.17188,1.17187 6.70313,1.48437 2.52344,0.31641 5.18359,0.47266 7.98437,0.47266"
                style="fill:#ffffff;fill-opacity:1;fill-rule:nonzero;stroke:none"
                inkscape:connector-curvature="0"/>
            <path
                id="path10"
                d="m 434.23828,288.95703 c 0,-4.58984 0.96484,-8.57422 2.90234,-11.94922 1.9375,-3.375 4.52344,-6.1875 7.76563,-8.4375 3.24219,-2.25 6.95312,-3.91797 11.14062,-4.99609 4.1836,-1.08203 8.52735,-1.6211 13.03125,-1.6211 3.32422,0 6.6836,0.31641 10.0586,0.94532 3.375,0.6289 6.59375,1.6875 9.65234,3.17187 3.0586,1.48438 5.85156,3.46485 8.3711,5.94141 2.51953,2.47656 4.63671,5.55859 6.34765,9.25 l -12.42187,5.67187 c -0.89844,-2.07031 -2.14063,-3.82812 -3.71485,-5.26953 -1.57422,-1.4375 -3.35156,-2.60547 -5.33203,-3.50781 -1.98047,-0.89844 -4.09765,-1.55469 -6.34765,-1.95703 -2.25,-0.40625 -4.45704,-0.60938 -6.61329,-0.60938 -2.88281,0 -5.60546,0.29297 -8.17187,0.87891 -2.56641,0.58594 -4.79297,1.46484 -6.68359,2.63281 -1.89063,1.17188 -3.39844,2.5625 -4.52344,4.1836 -1.12891,1.62109 -1.6875,3.51171 -1.6875,5.67187 v 28.08594 c 0,2.52344 0.67578,4.63672 2.02344,6.34765 1.35156,1.71094 3.0625,3.10547 5.13281,4.1836 2.07031,1.08203 4.33984,1.84765 6.82031,2.29687 2.47266,0.45313 4.83594,0.67578 7.08984,0.67578 4.32032,0 8.55079,-0.83203 12.69141,-2.5 4.13672,-1.66406 7.37891,-4.52343 9.72266,-8.57421 l 12.15234,5.53906 c -1.89062,3.60156 -4.12109,6.63672 -6.68359,9.11328 -2.56641,2.47656 -5.35547,4.45312 -8.3711,5.94141 -3.01953,1.48437 -6.1914,2.54296 -9.52343,3.17187 -3.33204,0.62891 -6.66407,0.94531 -9.98829,0.94531 -4.86328,0 -9.41015,-0.58593 -13.64062,-1.7539 -4.23438,-1.16797 -7.92188,-2.90235 -11.07031,-5.19922 -3.15235,-2.29688 -5.62891,-5.13281 -7.42969,-8.50781 -1.80078,-3.375 -2.69922,-7.26954 -2.69922,-11.67969"
                style="fill:#ffffff;fill-opacity:1;fill-rule:nonzero;stroke:none"
                inkscape:connector-curvature="0"/>
            <path
                id="path12"
                d="m 571.29297,263.30469 h 13.77344 v 53.875 c 0,4.32031 -0.85938,8.16797 -2.57422,11.54297 -1.71094,3.375 -4.10157,6.21093 -7.16797,8.50781 -3.06641,2.29687 -6.69531,4.03125 -10.89063,5.19922 -4.19531,1.16797 -8.77343,1.7539 -13.73047,1.7539 -4.87109,0 -9.47265,-0.58593 -13.80078,-1.7539 -4.32812,-1.16797 -8.09765,-2.90235 -11.29687,-5.19922 -3.20313,-2.29688 -5.75,-5.13281 -7.64453,-8.50781 -1.89453,-3.375 -2.83985,-7.22266 -2.83985,-11.54297 v -53.875 h 13.77344 v 53.875 c 0,2.51953 0.69531,4.63672 2.09375,6.34765 1.39453,1.70703 3.17188,3.08203 5.33203,4.11719 2.16016,1.03516 4.5,1.77734 7.02344,2.22656 2.51562,0.45313 4.94531,0.67578 7.28906,0.67578 2.16406,0 4.4336,-0.22265 6.82031,-0.67578 2.38282,-0.44922 4.60938,-1.1914 6.6836,-2.22656 2.07031,-1.03516 3.77734,-2.41016 5.13281,-4.11719 1.34766,-1.71093 2.02344,-3.82812 2.02344,-6.34765"
                style="fill:#ffffff;fill-opacity:1;fill-rule:nonzero;stroke:none"
                inkscape:connector-curvature="0"/>
            <path
                id="path14"
                d="m 680.94531,316.36719 v -6.21094 h -29.34375 c -2.60156,0 -4.71094,0.31641 -6.32422,0.94531 -1.61718,0.63281 -2.91797,1.375 -3.90625,2.23047 -0.98437,0.85547 -1.66015,1.75391 -2.01562,2.69922 -0.35938,0.94531 -0.53906,1.73437 -0.53906,2.36328 0,2.16016 0.55859,4.00781 1.67968,5.53516 1.1211,1.53125 2.64844,2.79297 4.57813,3.78125 1.92578,0.99218 4.17187,1.71093 6.73047,2.16015 2.55468,0.45313 5.26953,0.67578 8.14062,0.67578 4.9375,0 8.79688,-0.5625 11.57813,-1.6875 2.77734,-1.125 4.86718,-2.45312 6.25781,-3.98437 1.39062,-1.52734 2.26562,-3.08203 2.625,-4.65625 0.35937,-1.57422 0.53906,-2.85938 0.53906,-3.85156 m -20.79687,-54.27735 c 4.67968,0 9.11718,0.53907 13.30078,1.61719 4.1875,1.08203 7.84765,2.72656 10.98047,4.92969 3.1289,2.20703 5.6289,4.97656 7.49218,8.30469 1.86329,3.33203 2.79688,7.28906 2.79688,11.88281 v 27.54297 c 0,4.86328 -0.83594,9.02734 -2.50781,12.49218 -1.66797,3.46485 -4.03516,6.34375 -7.10157,8.64063 -3.0664,2.29687 -6.74218,3.98437 -11.02343,5.0625 -4.28516,1.08203 -8.9961,1.62109 -14.14063,1.62109 -4.87109,0 -9.42578,-0.49218 -13.66406,-1.48047 -4.23828,-0.98828 -7.9375,-2.53515 -11.08984,-4.64453 -3.16016,-2.10937 -5.64063,-4.78125 -7.44532,-8.01172 -1.80078,-3.23437 -2.70312,-7.09375 -2.70312,-11.57812 0,-3.41406 0.65234,-6.46484 1.95703,-9.15625 1.30469,-2.69531 3.10547,-4.98438 5.40234,-6.86719 2.29297,-1.88672 5.0625,-3.34375 8.30469,-4.375 3.23828,-1.03515 6.83984,-1.55078 10.80078,-1.55078 h 29.4375 v -7.60937 c 0,-2.17188 -0.54297,-4.07422 -1.62109,-5.71094 -1.08203,-1.62891 -2.56641,-2.98828 -4.45703,-4.07813 -1.89063,-1.08593 -4.09766,-1.92187 -6.61328,-2.51172 -2.52344,-0.58984 -5.22657,-0.88281 -8.10547,-0.88281 -9,0 -15.48438,2.88281 -19.44141,8.64063 l -11.88281,-7.01953 c 3.14844,-5.22266 7.3789,-9.07032 12.6914,-11.54688 5.3125,-2.47656 11.52344,-3.71094 18.63282,-3.71094"
                style="fill:#ffffff;fill-opacity:1;fill-rule:nonzero;stroke:none"
                inkscape:connector-curvature="0"/>
            <path
                id="path16"
                d="m 605.85156,335.72266 c 2.42969,-0.0352 4.86719,0.73046 6.875,2.28906 V 254 c 0,-2.82813 -2.3125,-5.14453 -5.14062,-5.14453 h -3.46875 c -2.83203,0 -5.14453,2.3164 -5.14453,5.14453 v 84.01172 c 2.01171,-1.5586 4.44531,-2.32422 6.8789,-2.28906"
                style="fill:#ffffff;fill-opacity:1;fill-rule:nonzero;stroke:none"
                inkscape:connector-curvature="0"/>
            <path
                id="path18"
                d="m 626.52344,368.01562 -15.58985,-15.58984 c -0.0117,-0.0117 -0.0312,-0.0234 -0.043,-0.0352 -0.0117,-0.0117 -0.0195,-0.0273 -0.0312,-0.0391 -2.70703,-2.70703 -7.14062,-2.70703 -9.84765,0 l -15.58985,15.58985 c -2.70703,2.70703 -2.70703,7.14062 0,9.84765 2.71094,2.70703 7.14063,2.70703 9.85157,0 l 10.66406,-10.66406 10.73828,10.73828 c 2.70703,2.70703 7.14063,2.70703 9.84766,0 2.70703,-2.70703 2.70703,-7.14062 0,-9.84766"
                style="fill:#ee2828;fill-opacity:1;fill-rule:nonzero;stroke:none"
                inkscape:connector-curvature="0"/>
        </g>
    </g>
</svg>
